<mxfile host="app.diagrams.net" modified="2023-01-16T20:14:27.695Z" agent="5.0 (Windows NT 10.0; Win64; x64) AppleWebKit/537.36 (KHTML, like Gecko) Chrome/109.0.0.0 Safari/537.36 Edg/109.0.1518.49" etag="U_tLreGml73W2imQwTR5" version="20.5.3" type="github">
  <diagram name="Page-1" id="9f46799a-70d6-7492-0946-bef42562c5a5">
    <mxGraphModel dx="2255" dy="707" grid="1" gridSize="10" guides="1" tooltips="1" connect="1" arrows="1" fold="1" page="1" pageScale="1" pageWidth="1100" pageHeight="850" background="none" math="0" shadow="0">
      <root>
        <mxCell id="0" />
        <mxCell id="1" parent="0" />
        <mxCell id="78961159f06e98e8-56" value="MechanicShop" style="swimlane;html=1;fontStyle=1;align=center;verticalAlign=top;childLayout=stackLayout;horizontal=1;startSize=26;horizontalStack=0;resizeParent=1;resizeLast=0;collapsible=1;marginBottom=0;swimlaneFillColor=#ffffff;rounded=0;shadow=0;comic=0;labelBackgroundColor=none;strokeWidth=1;fillColor=none;fontFamily=Verdana;fontSize=12" parent="1" vertex="1">
          <mxGeometry x="710" y="450" width="180" height="310" as="geometry" />
        </mxCell>
        <mxCell id="78961159f06e98e8-57" value="+ logo: blob" style="text;html=1;strokeColor=none;fillColor=none;align=left;verticalAlign=top;spacingLeft=4;spacingRight=4;whiteSpace=wrap;overflow=hidden;rotatable=0;points=[[0,0.5],[1,0.5]];portConstraint=eastwest;" parent="78961159f06e98e8-56" vertex="1">
          <mxGeometry y="26" width="180" height="26" as="geometry" />
        </mxCell>
        <mxCell id="78961159f06e98e8-58" value="+ slogan: string" style="text;html=1;strokeColor=none;fillColor=none;align=left;verticalAlign=top;spacingLeft=4;spacingRight=4;whiteSpace=wrap;overflow=hidden;rotatable=0;points=[[0,0.5],[1,0.5]];portConstraint=eastwest;" parent="78961159f06e98e8-56" vertex="1">
          <mxGeometry y="52" width="180" height="26" as="geometry" />
        </mxCell>
        <mxCell id="78961159f06e98e8-59" value="+ publicAddress: string" style="text;html=1;strokeColor=none;fillColor=none;align=left;verticalAlign=top;spacingLeft=4;spacingRight=4;whiteSpace=wrap;overflow=hidden;rotatable=0;points=[[0,0.5],[1,0.5]];portConstraint=eastwest;" parent="78961159f06e98e8-56" vertex="1">
          <mxGeometry y="78" width="180" height="26" as="geometry" />
        </mxCell>
        <mxCell id="78961159f06e98e8-60" value="+ email: string" style="text;html=1;strokeColor=none;fillColor=none;align=left;verticalAlign=top;spacingLeft=4;spacingRight=4;whiteSpace=wrap;overflow=hidden;rotatable=0;points=[[0,0.5],[1,0.5]];portConstraint=eastwest;" parent="78961159f06e98e8-56" vertex="1">
          <mxGeometry y="104" width="180" height="26" as="geometry" />
        </mxCell>
        <mxCell id="78961159f06e98e8-61" value="+ phone: string" style="text;html=1;strokeColor=none;fillColor=none;align=left;verticalAlign=top;spacingLeft=4;spacingRight=4;whiteSpace=wrap;overflow=hidden;rotatable=0;points=[[0,0.5],[1,0.5]];portConstraint=eastwest;" parent="78961159f06e98e8-56" vertex="1">
          <mxGeometry y="130" width="180" height="26" as="geometry" />
        </mxCell>
        <mxCell id="78961159f06e98e8-62" value="+ operatingHours: string[]" style="text;html=1;strokeColor=none;fillColor=none;align=left;verticalAlign=top;spacingLeft=4;spacingRight=4;whiteSpace=wrap;overflow=hidden;rotatable=0;points=[[0,0.5],[1,0.5]];portConstraint=eastwest;" parent="78961159f06e98e8-56" vertex="1">
          <mxGeometry y="156" width="180" height="26" as="geometry" />
        </mxCell>
        <mxCell id="78961159f06e98e8-63" value="+ returnPolicyUrl: string" style="text;html=1;strokeColor=none;fillColor=none;align=left;verticalAlign=top;spacingLeft=4;spacingRight=4;whiteSpace=wrap;overflow=hidden;rotatable=0;points=[[0,0.5],[1,0.5]];portConstraint=eastwest;" parent="78961159f06e98e8-56" vertex="1">
          <mxGeometry y="182" width="180" height="26" as="geometry" />
        </mxCell>
        <mxCell id="78961159f06e98e8-65" value="+ termsAndConditionsUrl: string" style="text;html=1;strokeColor=none;fillColor=none;align=left;verticalAlign=top;spacingLeft=4;spacingRight=4;whiteSpace=wrap;overflow=hidden;rotatable=0;points=[[0,0.5],[1,0.5]];portConstraint=eastwest;" parent="78961159f06e98e8-56" vertex="1">
          <mxGeometry y="208" width="180" height="26" as="geometry" />
        </mxCell>
        <mxCell id="78961159f06e98e8-66" value="+ privacyPolicyUrl: string" style="text;html=1;strokeColor=none;fillColor=none;align=left;verticalAlign=top;spacingLeft=4;spacingRight=4;whiteSpace=wrap;overflow=hidden;rotatable=0;points=[[0,0.5],[1,0.5]];portConstraint=eastwest;" parent="78961159f06e98e8-56" vertex="1">
          <mxGeometry y="234" width="180" height="26" as="geometry" />
        </mxCell>
        <mxCell id="MaNafPkNK3dRG7eyU0Rh-2" value="+ name: string" style="text;html=1;strokeColor=none;fillColor=none;align=left;verticalAlign=top;spacingLeft=4;spacingRight=4;whiteSpace=wrap;overflow=hidden;rotatable=0;points=[[0,0.5],[1,0.5]];portConstraint=eastwest;" parent="78961159f06e98e8-56" vertex="1">
          <mxGeometry y="260" width="180" height="26" as="geometry" />
        </mxCell>
        <mxCell id="78961159f06e98e8-82" value="Quote" style="swimlane;html=1;fontStyle=1;align=center;verticalAlign=top;childLayout=stackLayout;horizontal=1;startSize=26;horizontalStack=0;resizeParent=1;resizeLast=0;collapsible=1;marginBottom=0;swimlaneFillColor=#ffffff;rounded=0;shadow=0;comic=0;labelBackgroundColor=none;strokeWidth=1;fillColor=none;fontFamily=Verdana;fontSize=12" parent="1" vertex="1">
          <mxGeometry x="70" y="990" width="160" height="190" as="geometry" />
        </mxCell>
        <mxCell id="78961159f06e98e8-83" value="+ quoteId: int" style="text;html=1;strokeColor=none;fillColor=none;align=left;verticalAlign=top;spacingLeft=4;spacingRight=4;whiteSpace=wrap;overflow=hidden;rotatable=0;points=[[0,0.5],[1,0.5]];portConstraint=eastwest;" parent="78961159f06e98e8-82" vertex="1">
          <mxGeometry y="26" width="160" height="26" as="geometry" />
        </mxCell>
        <mxCell id="78961159f06e98e8-84" value="+ quoteDate: date" style="text;html=1;strokeColor=none;fillColor=none;align=left;verticalAlign=top;spacingLeft=4;spacingRight=4;whiteSpace=wrap;overflow=hidden;rotatable=0;points=[[0,0.5],[1,0.5]];portConstraint=eastwest;" parent="78961159f06e98e8-82" vertex="1">
          <mxGeometry y="52" width="160" height="26" as="geometry" />
        </mxCell>
        <mxCell id="78961159f06e98e8-85" value="+ price: number" style="text;html=1;strokeColor=none;fillColor=none;align=left;verticalAlign=top;spacingLeft=4;spacingRight=4;whiteSpace=wrap;overflow=hidden;rotatable=0;points=[[0,0.5],[1,0.5]];portConstraint=eastwest;" parent="78961159f06e98e8-82" vertex="1">
          <mxGeometry y="78" width="160" height="26" as="geometry" />
        </mxCell>
        <mxCell id="78961159f06e98e8-86" value="+ tax: number" style="text;html=1;strokeColor=none;fillColor=none;align=left;verticalAlign=top;spacingLeft=4;spacingRight=4;whiteSpace=wrap;overflow=hidden;rotatable=0;points=[[0,0.5],[1,0.5]];portConstraint=eastwest;" parent="78961159f06e98e8-82" vertex="1">
          <mxGeometry y="104" width="160" height="26" as="geometry" />
        </mxCell>
        <mxCell id="78961159f06e98e8-87" value="+ total: number" style="text;html=1;strokeColor=none;fillColor=none;align=left;verticalAlign=top;spacingLeft=4;spacingRight=4;whiteSpace=wrap;overflow=hidden;rotatable=0;points=[[0,0.5],[1,0.5]];portConstraint=eastwest;" parent="78961159f06e98e8-82" vertex="1">
          <mxGeometry y="130" width="160" height="26" as="geometry" />
        </mxCell>
        <mxCell id="78961159f06e98e8-90" value="" style="line;html=1;strokeWidth=1;fillColor=none;align=left;verticalAlign=middle;spacingTop=-1;spacingLeft=3;spacingRight=3;rotatable=0;labelPosition=right;points=[];portConstraint=eastwest;" parent="78961159f06e98e8-82" vertex="1">
          <mxGeometry y="156" width="160" height="8" as="geometry" />
        </mxCell>
        <mxCell id="78961159f06e98e8-91" value="+ method(type): type" style="text;html=1;strokeColor=none;fillColor=none;align=left;verticalAlign=top;spacingLeft=4;spacingRight=4;whiteSpace=wrap;overflow=hidden;rotatable=0;points=[[0,0.5],[1,0.5]];portConstraint=eastwest;" parent="78961159f06e98e8-82" vertex="1">
          <mxGeometry y="164" width="160" height="26" as="geometry" />
        </mxCell>
        <mxCell id="78961159f06e98e8-95" value="QuoteLineItem" style="swimlane;html=1;fontStyle=1;align=center;verticalAlign=top;childLayout=stackLayout;horizontal=1;startSize=26;horizontalStack=0;resizeParent=1;resizeLast=0;collapsible=1;marginBottom=0;swimlaneFillColor=#ffffff;rounded=0;shadow=0;comic=0;labelBackgroundColor=none;strokeWidth=1;fillColor=none;fontFamily=Verdana;fontSize=12" parent="1" vertex="1">
          <mxGeometry x="-240" y="981" width="160" height="168" as="geometry" />
        </mxCell>
        <mxCell id="78961159f06e98e8-96" value="+ partId: int" style="text;html=1;strokeColor=none;fillColor=none;align=left;verticalAlign=top;spacingLeft=4;spacingRight=4;whiteSpace=wrap;overflow=hidden;rotatable=0;points=[[0,0.5],[1,0.5]];portConstraint=eastwest;" parent="78961159f06e98e8-95" vertex="1">
          <mxGeometry y="26" width="160" height="26" as="geometry" />
        </mxCell>
        <mxCell id="78961159f06e98e8-97" value="+ labor: number" style="text;html=1;strokeColor=none;fillColor=none;align=left;verticalAlign=top;spacingLeft=4;spacingRight=4;whiteSpace=wrap;overflow=hidden;rotatable=0;points=[[0,0.5],[1,0.5]];portConstraint=eastwest;" parent="78961159f06e98e8-95" vertex="1">
          <mxGeometry y="52" width="160" height="26" as="geometry" />
        </mxCell>
        <mxCell id="78961159f06e98e8-98" value="+ price: number" style="text;html=1;strokeColor=none;fillColor=none;align=left;verticalAlign=top;spacingLeft=4;spacingRight=4;whiteSpace=wrap;overflow=hidden;rotatable=0;points=[[0,0.5],[1,0.5]];portConstraint=eastwest;" parent="78961159f06e98e8-95" vertex="1">
          <mxGeometry y="78" width="160" height="26" as="geometry" />
        </mxCell>
        <mxCell id="78961159f06e98e8-102" value="+ tax: number" style="text;html=1;strokeColor=none;fillColor=none;align=left;verticalAlign=top;spacingLeft=4;spacingRight=4;whiteSpace=wrap;overflow=hidden;rotatable=0;points=[[0,0.5],[1,0.5]];portConstraint=eastwest;" parent="78961159f06e98e8-95" vertex="1">
          <mxGeometry y="104" width="160" height="26" as="geometry" />
        </mxCell>
        <mxCell id="78961159f06e98e8-103" value="" style="line;html=1;strokeWidth=1;fillColor=none;align=left;verticalAlign=middle;spacingTop=-1;spacingLeft=3;spacingRight=3;rotatable=0;labelPosition=right;points=[];portConstraint=eastwest;" parent="78961159f06e98e8-95" vertex="1">
          <mxGeometry y="130" width="160" height="8" as="geometry" />
        </mxCell>
        <mxCell id="78961159f06e98e8-104" value="+ deleteLineItem(): bool" style="text;html=1;strokeColor=none;fillColor=none;align=left;verticalAlign=top;spacingLeft=4;spacingRight=4;whiteSpace=wrap;overflow=hidden;rotatable=0;points=[[0,0.5],[1,0.5]];portConstraint=eastwest;" parent="78961159f06e98e8-95" vertex="1">
          <mxGeometry y="138" width="160" height="26" as="geometry" />
        </mxCell>
        <mxCell id="46ZdBslRODWZEYfCIZZH-12" value="" style="endArrow=none;html=1;edgeStyle=orthogonalEdgeStyle;rounded=1;exitX=0.5;exitY=1;exitDx=0;exitDy=0;entryX=0.25;entryY=0;entryDx=0;entryDy=0;" parent="1" source="ke-xXv9OqPbWqF709rVO-1" target="78961159f06e98e8-56" edge="1">
          <mxGeometry relative="1" as="geometry">
            <mxPoint x="440" y="260" as="sourcePoint" />
            <mxPoint x="500" y="490" as="targetPoint" />
          </mxGeometry>
        </mxCell>
        <mxCell id="46ZdBslRODWZEYfCIZZH-14" value="1" style="edgeLabel;resizable=0;html=1;align=right;verticalAlign=bottom;" parent="46ZdBslRODWZEYfCIZZH-12" connectable="0" vertex="1">
          <mxGeometry x="1" relative="1" as="geometry">
            <mxPoint x="-10" as="offset" />
          </mxGeometry>
        </mxCell>
        <mxCell id="46ZdBslRODWZEYfCIZZH-15" value="InternalUser" style="swimlane;html=1;fontStyle=1;align=center;verticalAlign=top;childLayout=stackLayout;horizontal=1;startSize=26;horizontalStack=0;resizeParent=1;resizeLast=0;collapsible=1;marginBottom=0;swimlaneFillColor=#ffffff;rounded=0;shadow=0;comic=0;labelBackgroundColor=none;strokeWidth=1;fillColor=none;fontFamily=Verdana;fontSize=12" parent="1" vertex="1">
          <mxGeometry x="630" y="20" width="180" height="233" as="geometry" />
        </mxCell>
        <mxCell id="46ZdBslRODWZEYfCIZZH-16" value="+ userName: string" style="text;html=1;strokeColor=none;fillColor=none;align=left;verticalAlign=top;spacingLeft=4;spacingRight=4;whiteSpace=wrap;overflow=hidden;rotatable=0;points=[[0,0.5],[1,0.5]];portConstraint=eastwest;" parent="46ZdBslRODWZEYfCIZZH-15" vertex="1">
          <mxGeometry y="26" width="180" height="26" as="geometry" />
        </mxCell>
        <mxCell id="46ZdBslRODWZEYfCIZZH-17" value="+ userId: number" style="text;html=1;strokeColor=none;fillColor=none;align=left;verticalAlign=top;spacingLeft=4;spacingRight=4;whiteSpace=wrap;overflow=hidden;rotatable=0;points=[[0,0.5],[1,0.5]];portConstraint=eastwest;" parent="46ZdBslRODWZEYfCIZZH-15" vertex="1">
          <mxGeometry y="52" width="180" height="26" as="geometry" />
        </mxCell>
        <mxCell id="46ZdBslRODWZEYfCIZZH-18" value="+ email: string" style="text;html=1;strokeColor=none;fillColor=none;align=left;verticalAlign=top;spacingLeft=4;spacingRight=4;whiteSpace=wrap;overflow=hidden;rotatable=0;points=[[0,0.5],[1,0.5]];portConstraint=eastwest;" parent="46ZdBslRODWZEYfCIZZH-15" vertex="1">
          <mxGeometry y="78" width="180" height="26" as="geometry" />
        </mxCell>
        <mxCell id="46ZdBslRODWZEYfCIZZH-19" value="+ name: string" style="text;html=1;strokeColor=none;fillColor=none;align=left;verticalAlign=top;spacingLeft=4;spacingRight=4;whiteSpace=wrap;overflow=hidden;rotatable=0;points=[[0,0.5],[1,0.5]];portConstraint=eastwest;" parent="46ZdBslRODWZEYfCIZZH-15" vertex="1">
          <mxGeometry y="104" width="180" height="26" as="geometry" />
        </mxCell>
        <mxCell id="46ZdBslRODWZEYfCIZZH-20" value="+ phone: string" style="text;html=1;strokeColor=none;fillColor=none;align=left;verticalAlign=top;spacingLeft=4;spacingRight=4;whiteSpace=wrap;overflow=hidden;rotatable=0;points=[[0,0.5],[1,0.5]];portConstraint=eastwest;" parent="46ZdBslRODWZEYfCIZZH-15" vertex="1">
          <mxGeometry y="130" width="180" height="26" as="geometry" />
        </mxCell>
        <mxCell id="46ZdBslRODWZEYfCIZZH-21" value="+ password: string" style="text;html=1;strokeColor=none;fillColor=none;align=left;verticalAlign=top;spacingLeft=4;spacingRight=4;whiteSpace=wrap;overflow=hidden;rotatable=0;points=[[0,0.5],[1,0.5]];portConstraint=eastwest;" parent="46ZdBslRODWZEYfCIZZH-15" vertex="1">
          <mxGeometry y="156" width="180" height="26" as="geometry" />
        </mxCell>
        <mxCell id="MaNafPkNK3dRG7eyU0Rh-1" value="+ role: enum(&#39;employee&#39;,&#39;admin&#39;)" style="text;html=1;strokeColor=none;fillColor=none;align=left;verticalAlign=top;spacingLeft=4;spacingRight=4;whiteSpace=wrap;overflow=hidden;rotatable=0;points=[[0,0.5],[1,0.5]];portConstraint=eastwest;" parent="46ZdBslRODWZEYfCIZZH-15" vertex="1">
          <mxGeometry y="182" width="180" height="38" as="geometry" />
        </mxCell>
        <mxCell id="46ZdBslRODWZEYfCIZZH-25" value="" style="endArrow=none;html=1;edgeStyle=orthogonalEdgeStyle;rounded=1;exitX=0.5;exitY=0;exitDx=0;exitDy=0;entryX=0.5;entryY=1;entryDx=0;entryDy=0;" parent="1" source="78961159f06e98e8-56" target="46ZdBslRODWZEYfCIZZH-15" edge="1">
          <mxGeometry relative="1" as="geometry">
            <mxPoint x="895" y="708" as="sourcePoint" />
            <mxPoint x="1055" y="708" as="targetPoint" />
            <Array as="points">
              <mxPoint x="800" y="330" />
              <mxPoint x="720" y="330" />
            </Array>
          </mxGeometry>
        </mxCell>
        <mxCell id="46ZdBslRODWZEYfCIZZH-26" value="1" style="edgeLabel;resizable=0;html=1;align=left;verticalAlign=bottom;" parent="46ZdBslRODWZEYfCIZZH-25" connectable="0" vertex="1">
          <mxGeometry x="-1" relative="1" as="geometry" />
        </mxCell>
        <mxCell id="46ZdBslRODWZEYfCIZZH-27" value="1..n" style="edgeLabel;resizable=0;html=1;align=right;verticalAlign=bottom;" parent="46ZdBslRODWZEYfCIZZH-25" connectable="0" vertex="1">
          <mxGeometry x="1" relative="1" as="geometry">
            <mxPoint x="33" y="22" as="offset" />
          </mxGeometry>
        </mxCell>
        <mxCell id="46ZdBslRODWZEYfCIZZH-40" value="" style="endArrow=diamondThin;endFill=0;endSize=16;html=1;rounded=1;strokeColor=default;exitX=1;exitY=0.5;exitDx=0;exitDy=0;edgeStyle=orthogonalEdgeStyle;startSize=8;entryX=0;entryY=0.5;entryDx=0;entryDy=0;" parent="1" source="78961159f06e98e8-98" target="78961159f06e98e8-87" edge="1">
          <mxGeometry width="160" relative="1" as="geometry">
            <mxPoint x="-210" y="1818" as="sourcePoint" />
            <mxPoint x="200" y="1240" as="targetPoint" />
          </mxGeometry>
        </mxCell>
        <mxCell id="46ZdBslRODWZEYfCIZZH-44" value="1..n" style="edgeLabel;html=1;align=center;verticalAlign=middle;resizable=0;points=[];" parent="46ZdBslRODWZEYfCIZZH-40" vertex="1" connectable="0">
          <mxGeometry x="-0.2828" y="7" relative="1" as="geometry">
            <mxPoint x="-72" y="-14" as="offset" />
          </mxGeometry>
        </mxCell>
        <mxCell id="46ZdBslRODWZEYfCIZZH-41" value="" style="endArrow=none;html=1;edgeStyle=orthogonalEdgeStyle;rounded=1;startSize=8;endSize=16;strokeColor=default;exitX=0;exitY=0.5;exitDx=0;exitDy=0;" parent="1" source="46ZdBslRODWZEYfCIZZH-50" edge="1">
          <mxGeometry relative="1" as="geometry">
            <mxPoint x="340" y="980" as="sourcePoint" />
            <mxPoint x="230" y="1160" as="targetPoint" />
            <Array as="points">
              <mxPoint x="385" y="1157" />
              <mxPoint x="385" y="1159" />
            </Array>
          </mxGeometry>
        </mxCell>
        <mxCell id="46ZdBslRODWZEYfCIZZH-42" value="1" style="edgeLabel;resizable=0;html=1;align=left;verticalAlign=bottom;" parent="46ZdBslRODWZEYfCIZZH-41" connectable="0" vertex="1">
          <mxGeometry x="-1" relative="1" as="geometry" />
        </mxCell>
        <mxCell id="46ZdBslRODWZEYfCIZZH-43" value="0..n" style="edgeLabel;resizable=0;html=1;align=right;verticalAlign=bottom;" parent="46ZdBslRODWZEYfCIZZH-41" connectable="0" vertex="1">
          <mxGeometry x="1" relative="1" as="geometry">
            <mxPoint x="30" y="-3" as="offset" />
          </mxGeometry>
        </mxCell>
        <mxCell id="46ZdBslRODWZEYfCIZZH-58" value="1" style="edgeLabel;html=1;align=center;verticalAlign=middle;resizable=0;points=[];" parent="46ZdBslRODWZEYfCIZZH-41" vertex="1" connectable="0">
          <mxGeometry x="-0.7743" y="10" relative="1" as="geometry">
            <mxPoint x="14" y="-17" as="offset" />
          </mxGeometry>
        </mxCell>
        <mxCell id="46ZdBslRODWZEYfCIZZH-46" value="EndUser" style="swimlane;html=1;fontStyle=1;align=center;verticalAlign=top;childLayout=stackLayout;horizontal=1;startSize=26;horizontalStack=0;resizeParent=1;resizeLast=0;collapsible=1;marginBottom=0;swimlaneFillColor=#ffffff;rounded=0;shadow=0;comic=0;labelBackgroundColor=none;strokeWidth=1;fillColor=none;fontFamily=Verdana;fontSize=12" parent="1" vertex="1">
          <mxGeometry x="540" y="1040" width="180" height="270" as="geometry" />
        </mxCell>
        <mxCell id="46ZdBslRODWZEYfCIZZH-47" value="+ userId: int" style="text;html=1;strokeColor=none;fillColor=none;align=left;verticalAlign=top;spacingLeft=4;spacingRight=4;whiteSpace=wrap;overflow=hidden;rotatable=0;points=[[0,0.5],[1,0.5]];portConstraint=eastwest;" parent="46ZdBslRODWZEYfCIZZH-46" vertex="1">
          <mxGeometry y="26" width="180" height="26" as="geometry" />
        </mxCell>
        <mxCell id="46ZdBslRODWZEYfCIZZH-48" value="+ userName: string" style="text;html=1;strokeColor=none;fillColor=none;align=left;verticalAlign=top;spacingLeft=4;spacingRight=4;whiteSpace=wrap;overflow=hidden;rotatable=0;points=[[0,0.5],[1,0.5]];portConstraint=eastwest;" parent="46ZdBslRODWZEYfCIZZH-46" vertex="1">
          <mxGeometry y="52" width="180" height="26" as="geometry" />
        </mxCell>
        <mxCell id="46ZdBslRODWZEYfCIZZH-49" value="+ name: string" style="text;html=1;strokeColor=none;fillColor=none;align=left;verticalAlign=top;spacingLeft=4;spacingRight=4;whiteSpace=wrap;overflow=hidden;rotatable=0;points=[[0,0.5],[1,0.5]];portConstraint=eastwest;" parent="46ZdBslRODWZEYfCIZZH-46" vertex="1">
          <mxGeometry y="78" width="180" height="26" as="geometry" />
        </mxCell>
        <mxCell id="46ZdBslRODWZEYfCIZZH-50" value="+ email: string" style="text;html=1;strokeColor=none;fillColor=none;align=left;verticalAlign=top;spacingLeft=4;spacingRight=4;whiteSpace=wrap;overflow=hidden;rotatable=0;points=[[0,0.5],[1,0.5]];portConstraint=eastwest;" parent="46ZdBslRODWZEYfCIZZH-46" vertex="1">
          <mxGeometry y="104" width="180" height="26" as="geometry" />
        </mxCell>
        <mxCell id="46ZdBslRODWZEYfCIZZH-51" value="+ phone: string" style="text;html=1;strokeColor=none;fillColor=none;align=left;verticalAlign=top;spacingLeft=4;spacingRight=4;whiteSpace=wrap;overflow=hidden;rotatable=0;points=[[0,0.5],[1,0.5]];portConstraint=eastwest;" parent="46ZdBslRODWZEYfCIZZH-46" vertex="1">
          <mxGeometry y="130" width="180" height="26" as="geometry" />
        </mxCell>
        <mxCell id="46ZdBslRODWZEYfCIZZH-52" value="+ passwordHash: string" style="text;html=1;strokeColor=none;fillColor=none;align=left;verticalAlign=top;spacingLeft=4;spacingRight=4;whiteSpace=wrap;overflow=hidden;rotatable=0;points=[[0,0.5],[1,0.5]];portConstraint=eastwest;" parent="46ZdBslRODWZEYfCIZZH-46" vertex="1">
          <mxGeometry y="156" width="180" height="26" as="geometry" />
        </mxCell>
        <mxCell id="46ZdBslRODWZEYfCIZZH-53" value="" style="line;html=1;strokeWidth=1;fillColor=none;align=left;verticalAlign=middle;spacingTop=-1;spacingLeft=3;spacingRight=3;rotatable=0;labelPosition=right;points=[];portConstraint=eastwest;" parent="46ZdBslRODWZEYfCIZZH-46" vertex="1">
          <mxGeometry y="182" width="180" height="8" as="geometry" />
        </mxCell>
        <mxCell id="46ZdBslRODWZEYfCIZZH-54" value="+ logIn({userName, password}):&lt;br&gt;{ userId, JWT } | nil" style="text;html=1;strokeColor=none;fillColor=none;align=left;verticalAlign=top;spacingLeft=4;spacingRight=4;whiteSpace=wrap;overflow=hidden;rotatable=0;points=[[0,0.5],[1,0.5]];portConstraint=eastwest;" parent="46ZdBslRODWZEYfCIZZH-46" vertex="1">
          <mxGeometry y="190" width="180" height="40" as="geometry" />
        </mxCell>
        <mxCell id="46ZdBslRODWZEYfCIZZH-55" value="+ validateRefreshJwt(JWT):&lt;br&gt;{ userId, JWT }&amp;nbsp;| nil" style="text;html=1;strokeColor=none;fillColor=none;align=left;verticalAlign=top;spacingLeft=4;spacingRight=4;whiteSpace=wrap;overflow=hidden;rotatable=0;points=[[0,0.5],[1,0.5]];portConstraint=eastwest;" parent="46ZdBslRODWZEYfCIZZH-46" vertex="1">
          <mxGeometry y="230" width="180" height="40" as="geometry" />
        </mxCell>
        <mxCell id="46ZdBslRODWZEYfCIZZH-59" value="Appointment" style="swimlane;html=1;fontStyle=1;align=center;verticalAlign=top;childLayout=stackLayout;horizontal=1;startSize=26;horizontalStack=0;resizeParent=1;resizeLast=0;collapsible=1;marginBottom=0;swimlaneFillColor=#ffffff;rounded=0;shadow=0;comic=0;labelBackgroundColor=none;strokeWidth=1;fillColor=none;fontFamily=Verdana;fontSize=12" parent="1" vertex="1">
          <mxGeometry x="510" y="682" width="160" height="168" as="geometry" />
        </mxCell>
        <mxCell id="46ZdBslRODWZEYfCIZZH-60" value="+ stall: number" style="text;html=1;strokeColor=none;fillColor=none;align=left;verticalAlign=top;spacingLeft=4;spacingRight=4;whiteSpace=wrap;overflow=hidden;rotatable=0;points=[[0,0.5],[1,0.5]];portConstraint=eastwest;" parent="46ZdBslRODWZEYfCIZZH-59" vertex="1">
          <mxGeometry y="26" width="160" height="24" as="geometry" />
        </mxCell>
        <mxCell id="46ZdBslRODWZEYfCIZZH-61" value="+ startTime: date" style="text;html=1;strokeColor=none;fillColor=none;align=left;verticalAlign=top;spacingLeft=4;spacingRight=4;whiteSpace=wrap;overflow=hidden;rotatable=0;points=[[0,0.5],[1,0.5]];portConstraint=eastwest;" parent="46ZdBslRODWZEYfCIZZH-59" vertex="1">
          <mxGeometry y="50" width="160" height="26" as="geometry" />
        </mxCell>
        <mxCell id="46ZdBslRODWZEYfCIZZH-62" value="+ duration: number" style="text;html=1;strokeColor=none;fillColor=none;align=left;verticalAlign=top;spacingLeft=4;spacingRight=4;whiteSpace=wrap;overflow=hidden;rotatable=0;points=[[0,0.5],[1,0.5]];portConstraint=eastwest;" parent="46ZdBslRODWZEYfCIZZH-59" vertex="1">
          <mxGeometry y="76" width="160" height="26" as="geometry" />
        </mxCell>
        <mxCell id="46ZdBslRODWZEYfCIZZH-63" value="+ type: enum" style="text;html=1;strokeColor=none;fillColor=none;align=left;verticalAlign=top;spacingLeft=4;spacingRight=4;whiteSpace=wrap;overflow=hidden;rotatable=0;points=[[0,0.5],[1,0.5]];portConstraint=eastwest;" parent="46ZdBslRODWZEYfCIZZH-59" vertex="1">
          <mxGeometry y="102" width="160" height="26" as="geometry" />
        </mxCell>
        <mxCell id="46ZdBslRODWZEYfCIZZH-64" value="" style="line;html=1;strokeWidth=1;fillColor=none;align=left;verticalAlign=middle;spacingTop=-1;spacingLeft=3;spacingRight=3;rotatable=0;labelPosition=right;points=[];portConstraint=eastwest;" parent="46ZdBslRODWZEYfCIZZH-59" vertex="1">
          <mxGeometry y="128" width="160" height="8" as="geometry" />
        </mxCell>
        <mxCell id="46ZdBslRODWZEYfCIZZH-65" value="+ cancelAppointment(): bool" style="text;html=1;strokeColor=none;fillColor=none;align=left;verticalAlign=top;spacingLeft=4;spacingRight=4;whiteSpace=wrap;overflow=hidden;rotatable=0;points=[[0,0.5],[1,0.5]];portConstraint=eastwest;" parent="46ZdBslRODWZEYfCIZZH-59" vertex="1">
          <mxGeometry y="136" width="160" height="26" as="geometry" />
        </mxCell>
        <mxCell id="46ZdBslRODWZEYfCIZZH-67" value="" style="endArrow=none;html=1;edgeStyle=orthogonalEdgeStyle;rounded=1;startSize=8;endSize=16;strokeColor=default;exitX=0.25;exitY=1;exitDx=0;exitDy=0;entryX=0.75;entryY=0;entryDx=0;entryDy=0;" parent="1" source="78961159f06e98e8-56" target="46ZdBslRODWZEYfCIZZH-46" edge="1">
          <mxGeometry relative="1" as="geometry">
            <mxPoint x="110" y="840" as="sourcePoint" />
            <mxPoint x="270" y="840" as="targetPoint" />
          </mxGeometry>
        </mxCell>
        <mxCell id="46ZdBslRODWZEYfCIZZH-68" value="1" style="edgeLabel;resizable=0;html=1;align=left;verticalAlign=bottom;" parent="46ZdBslRODWZEYfCIZZH-67" connectable="0" vertex="1">
          <mxGeometry x="-1" relative="1" as="geometry">
            <mxPoint y="20" as="offset" />
          </mxGeometry>
        </mxCell>
        <mxCell id="46ZdBslRODWZEYfCIZZH-69" value="0..n" style="edgeLabel;resizable=0;html=1;align=right;verticalAlign=bottom;" parent="46ZdBslRODWZEYfCIZZH-67" connectable="0" vertex="1">
          <mxGeometry x="1" relative="1" as="geometry">
            <mxPoint x="30" y="-3" as="offset" />
          </mxGeometry>
        </mxCell>
        <mxCell id="46ZdBslRODWZEYfCIZZH-70" value="" style="endArrow=none;html=1;edgeStyle=orthogonalEdgeStyle;rounded=1;startSize=8;endSize=16;strokeColor=default;exitX=0;exitY=0.5;exitDx=0;exitDy=0;entryX=1;entryY=0.5;entryDx=0;entryDy=0;" parent="1" target="46ZdBslRODWZEYfCIZZH-62" edge="1">
          <mxGeometry relative="1" as="geometry">
            <mxPoint x="710" y="731" as="sourcePoint" />
            <mxPoint x="530" y="580" as="targetPoint" />
            <Array as="points">
              <mxPoint x="700" y="731" />
              <mxPoint x="700" y="771" />
            </Array>
          </mxGeometry>
        </mxCell>
        <mxCell id="46ZdBslRODWZEYfCIZZH-71" value="1" style="edgeLabel;resizable=0;html=1;align=left;verticalAlign=bottom;" parent="46ZdBslRODWZEYfCIZZH-70" connectable="0" vertex="1">
          <mxGeometry x="-1" relative="1" as="geometry">
            <mxPoint x="-15" as="offset" />
          </mxGeometry>
        </mxCell>
        <mxCell id="46ZdBslRODWZEYfCIZZH-72" value="0..n" style="edgeLabel;resizable=0;html=1;align=right;verticalAlign=bottom;" parent="46ZdBslRODWZEYfCIZZH-70" connectable="0" vertex="1">
          <mxGeometry x="1" relative="1" as="geometry">
            <mxPoint x="20" y="-1" as="offset" />
          </mxGeometry>
        </mxCell>
        <mxCell id="46ZdBslRODWZEYfCIZZH-73" value="" style="endArrow=none;html=1;edgeStyle=orthogonalEdgeStyle;rounded=1;startSize=8;endSize=16;strokeColor=default;entryX=0;entryY=0.5;entryDx=0;entryDy=0;exitX=0.75;exitY=0;exitDx=0;exitDy=0;" parent="1" source="78961159f06e98e8-82" target="46ZdBslRODWZEYfCIZZH-62" edge="1">
          <mxGeometry relative="1" as="geometry">
            <mxPoint x="160" y="680" as="sourcePoint" />
            <mxPoint x="320" y="680" as="targetPoint" />
            <Array as="points">
              <mxPoint x="190" y="820" />
              <mxPoint x="480" y="820" />
              <mxPoint x="480" y="770" />
              <mxPoint x="510" y="770" />
            </Array>
          </mxGeometry>
        </mxCell>
        <mxCell id="46ZdBslRODWZEYfCIZZH-74" value="1" style="edgeLabel;resizable=0;html=1;align=left;verticalAlign=bottom;" parent="46ZdBslRODWZEYfCIZZH-73" connectable="0" vertex="1">
          <mxGeometry x="-1" relative="1" as="geometry">
            <mxPoint x="-20" as="offset" />
          </mxGeometry>
        </mxCell>
        <mxCell id="46ZdBslRODWZEYfCIZZH-75" value="0..1" style="edgeLabel;resizable=0;html=1;align=right;verticalAlign=bottom;" parent="46ZdBslRODWZEYfCIZZH-73" connectable="0" vertex="1">
          <mxGeometry x="1" relative="1" as="geometry" />
        </mxCell>
        <mxCell id="46ZdBslRODWZEYfCIZZH-76" value="" style="endArrow=none;html=1;edgeStyle=orthogonalEdgeStyle;rounded=1;startSize=8;endSize=16;strokeColor=default;entryX=0.5;entryY=0;entryDx=0;entryDy=0;exitX=0.75;exitY=1;exitDx=0;exitDy=0;" parent="1" source="46ZdBslRODWZEYfCIZZH-59" target="46ZdBslRODWZEYfCIZZH-46" edge="1">
          <mxGeometry relative="1" as="geometry">
            <mxPoint x="490" y="690" as="sourcePoint" />
            <mxPoint x="320" y="680" as="targetPoint" />
            <Array as="points" />
          </mxGeometry>
        </mxCell>
        <mxCell id="46ZdBslRODWZEYfCIZZH-77" value="0..n" style="edgeLabel;resizable=0;html=1;align=left;verticalAlign=bottom;" parent="46ZdBslRODWZEYfCIZZH-76" connectable="0" vertex="1">
          <mxGeometry x="-1" relative="1" as="geometry">
            <mxPoint y="20" as="offset" />
          </mxGeometry>
        </mxCell>
        <mxCell id="46ZdBslRODWZEYfCIZZH-78" value="1" style="edgeLabel;resizable=0;html=1;align=right;verticalAlign=bottom;" parent="46ZdBslRODWZEYfCIZZH-76" connectable="0" vertex="1">
          <mxGeometry x="1" relative="1" as="geometry" />
        </mxCell>
        <mxCell id="46ZdBslRODWZEYfCIZZH-90" value="" style="endArrow=none;html=1;edgeStyle=orthogonalEdgeStyle;rounded=1;startSize=8;endSize=16;strokeColor=default;exitX=0;exitY=0.5;exitDx=0;exitDy=0;" parent="1" source="78961159f06e98e8-57" target="ke-xXv9OqPbWqF709rVO-37" edge="1">
          <mxGeometry relative="1" as="geometry">
            <mxPoint x="170" y="510" as="sourcePoint" />
            <mxPoint x="100" y="439" as="targetPoint" />
            <Array as="points">
              <mxPoint x="680" y="489" />
              <mxPoint x="680" y="381" />
            </Array>
          </mxGeometry>
        </mxCell>
        <mxCell id="46ZdBslRODWZEYfCIZZH-91" value="1" style="edgeLabel;resizable=0;html=1;align=left;verticalAlign=bottom;" parent="46ZdBslRODWZEYfCIZZH-90" connectable="0" vertex="1">
          <mxGeometry x="-1" relative="1" as="geometry">
            <mxPoint x="-15" as="offset" />
          </mxGeometry>
        </mxCell>
        <mxCell id="46ZdBslRODWZEYfCIZZH-92" value="0..n" style="edgeLabel;resizable=0;html=1;align=right;verticalAlign=bottom;" parent="46ZdBslRODWZEYfCIZZH-90" connectable="0" vertex="1">
          <mxGeometry x="1" relative="1" as="geometry">
            <mxPoint x="30" y="-8" as="offset" />
          </mxGeometry>
        </mxCell>
        <mxCell id="46ZdBslRODWZEYfCIZZH-102" value="" style="endArrow=none;html=1;edgeStyle=orthogonalEdgeStyle;rounded=1;startSize=8;endSize=16;strokeColor=default;exitX=0;exitY=0.5;exitDx=0;exitDy=0;entryX=1;entryY=0.5;entryDx=0;entryDy=0;" parent="1" source="ke-xXv9OqPbWqF709rVO-40" target="ke-xXv9OqPbWqF709rVO-52" edge="1">
          <mxGeometry relative="1" as="geometry">
            <mxPoint x="-90" y="517" as="sourcePoint" />
            <mxPoint x="-130" y="516.9999999999998" as="targetPoint" />
          </mxGeometry>
        </mxCell>
        <mxCell id="46ZdBslRODWZEYfCIZZH-103" value="1" style="edgeLabel;resizable=0;html=1;align=left;verticalAlign=bottom;" parent="46ZdBslRODWZEYfCIZZH-102" connectable="0" vertex="1">
          <mxGeometry x="-1" relative="1" as="geometry">
            <mxPoint x="-20" y="23" as="offset" />
          </mxGeometry>
        </mxCell>
        <mxCell id="46ZdBslRODWZEYfCIZZH-104" value="0..n" style="edgeLabel;resizable=0;html=1;align=right;verticalAlign=bottom;" parent="46ZdBslRODWZEYfCIZZH-102" connectable="0" vertex="1">
          <mxGeometry x="1" relative="1" as="geometry">
            <mxPoint x="20" as="offset" />
          </mxGeometry>
        </mxCell>
        <mxCell id="46ZdBslRODWZEYfCIZZH-105" value="" style="endArrow=none;html=1;edgeStyle=orthogonalEdgeStyle;rounded=1;startSize=8;endSize=16;strokeColor=default;" parent="1" edge="1">
          <mxGeometry relative="1" as="geometry">
            <mxPoint x="-280" y="550" as="sourcePoint" />
            <mxPoint x="-210" y="980" as="targetPoint" />
            <Array as="points">
              <mxPoint x="-280" y="800" />
              <mxPoint x="-210" y="800" />
            </Array>
          </mxGeometry>
        </mxCell>
        <mxCell id="46ZdBslRODWZEYfCIZZH-106" value="0..n" style="edgeLabel;resizable=0;html=1;align=left;verticalAlign=bottom;" parent="46ZdBslRODWZEYfCIZZH-105" connectable="0" vertex="1">
          <mxGeometry x="-1" relative="1" as="geometry">
            <mxPoint x="10" y="19" as="offset" />
          </mxGeometry>
        </mxCell>
        <mxCell id="46ZdBslRODWZEYfCIZZH-107" value="1" style="edgeLabel;resizable=0;html=1;align=right;verticalAlign=bottom;" parent="46ZdBslRODWZEYfCIZZH-105" connectable="0" vertex="1">
          <mxGeometry x="1" relative="1" as="geometry">
            <mxPoint x="-10" as="offset" />
          </mxGeometry>
        </mxCell>
        <mxCell id="46ZdBslRODWZEYfCIZZH-109" value="VehicleType" style="swimlane;html=1;fontStyle=1;align=center;verticalAlign=top;childLayout=stackLayout;horizontal=1;startSize=26;horizontalStack=0;resizeParent=1;resizeLast=0;collapsible=1;marginBottom=0;swimlaneFillColor=#ffffff;rounded=0;shadow=0;comic=0;labelBackgroundColor=none;strokeWidth=1;fillColor=none;fontFamily=Verdana;fontSize=12" parent="1" vertex="1">
          <mxGeometry x="330" y="510" width="160" height="200" as="geometry" />
        </mxCell>
        <mxCell id="46ZdBslRODWZEYfCIZZH-110" value="+ vehicleTypeId: int" style="text;html=1;strokeColor=none;fillColor=none;align=left;verticalAlign=top;spacingLeft=4;spacingRight=4;whiteSpace=wrap;overflow=hidden;rotatable=0;points=[[0,0.5],[1,0.5]];portConstraint=eastwest;" parent="46ZdBslRODWZEYfCIZZH-109" vertex="1">
          <mxGeometry y="26" width="160" height="26" as="geometry" />
        </mxCell>
        <mxCell id="46ZdBslRODWZEYfCIZZH-111" value="+ make: string" style="text;html=1;strokeColor=none;fillColor=none;align=left;verticalAlign=top;spacingLeft=4;spacingRight=4;whiteSpace=wrap;overflow=hidden;rotatable=0;points=[[0,0.5],[1,0.5]];portConstraint=eastwest;" parent="46ZdBslRODWZEYfCIZZH-109" vertex="1">
          <mxGeometry y="52" width="160" height="26" as="geometry" />
        </mxCell>
        <mxCell id="46ZdBslRODWZEYfCIZZH-112" value="+ model: string" style="text;html=1;strokeColor=none;fillColor=none;align=left;verticalAlign=top;spacingLeft=4;spacingRight=4;whiteSpace=wrap;overflow=hidden;rotatable=0;points=[[0,0.5],[1,0.5]];portConstraint=eastwest;" parent="46ZdBslRODWZEYfCIZZH-109" vertex="1">
          <mxGeometry y="78" width="160" height="26" as="geometry" />
        </mxCell>
        <mxCell id="46ZdBslRODWZEYfCIZZH-113" value="+ modelYear: string" style="text;html=1;strokeColor=none;fillColor=none;align=left;verticalAlign=top;spacingLeft=4;spacingRight=4;whiteSpace=wrap;overflow=hidden;rotatable=0;points=[[0,0.5],[1,0.5]];portConstraint=eastwest;" parent="46ZdBslRODWZEYfCIZZH-109" vertex="1">
          <mxGeometry y="104" width="160" height="26" as="geometry" />
        </mxCell>
        <mxCell id="46ZdBslRODWZEYfCIZZH-114" value="+ engineVariant: string" style="text;html=1;strokeColor=none;fillColor=none;align=left;verticalAlign=top;spacingLeft=4;spacingRight=4;whiteSpace=wrap;overflow=hidden;rotatable=0;points=[[0,0.5],[1,0.5]];portConstraint=eastwest;" parent="46ZdBslRODWZEYfCIZZH-109" vertex="1">
          <mxGeometry y="130" width="160" height="26" as="geometry" />
        </mxCell>
        <mxCell id="MaNafPkNK3dRG7eyU0Rh-3" value="+ bodyType: string" style="text;html=1;strokeColor=none;fillColor=none;align=left;verticalAlign=top;spacingLeft=4;spacingRight=4;whiteSpace=wrap;overflow=hidden;rotatable=0;points=[[0,0.5],[1,0.5]];portConstraint=eastwest;" parent="46ZdBslRODWZEYfCIZZH-109" vertex="1">
          <mxGeometry y="156" width="160" height="26" as="geometry" />
        </mxCell>
        <mxCell id="46ZdBslRODWZEYfCIZZH-118" value="" style="endArrow=none;html=1;edgeStyle=orthogonalEdgeStyle;rounded=1;startSize=8;endSize=16;strokeColor=default;exitX=0.25;exitY=1;exitDx=0;exitDy=0;entryX=0.25;entryY=0;entryDx=0;entryDy=0;" parent="1" source="46ZdBslRODWZEYfCIZZH-109" target="78961159f06e98e8-82" edge="1">
          <mxGeometry relative="1" as="geometry">
            <mxPoint x="320" y="900" as="sourcePoint" />
            <mxPoint x="480" y="900" as="targetPoint" />
            <Array as="points">
              <mxPoint x="370" y="800" />
              <mxPoint x="110" y="800" />
            </Array>
          </mxGeometry>
        </mxCell>
        <mxCell id="46ZdBslRODWZEYfCIZZH-119" value="1" style="edgeLabel;resizable=0;html=1;align=left;verticalAlign=bottom;" parent="46ZdBslRODWZEYfCIZZH-118" connectable="0" vertex="1">
          <mxGeometry x="-1" relative="1" as="geometry">
            <mxPoint x="10" y="20" as="offset" />
          </mxGeometry>
        </mxCell>
        <mxCell id="46ZdBslRODWZEYfCIZZH-120" value="0..n" style="edgeLabel;resizable=0;html=1;align=right;verticalAlign=bottom;" parent="46ZdBslRODWZEYfCIZZH-118" connectable="0" vertex="1">
          <mxGeometry x="1" relative="1" as="geometry" />
        </mxCell>
        <mxCell id="46ZdBslRODWZEYfCIZZH-121" value="" style="endArrow=none;html=1;edgeStyle=orthogonalEdgeStyle;rounded=1;startSize=8;endSize=16;strokeColor=default;exitX=1;exitY=0.5;exitDx=0;exitDy=0;entryX=0;entryY=0.5;entryDx=0;entryDy=0;" parent="1" source="46ZdBslRODWZEYfCIZZH-111" target="78961159f06e98e8-63" edge="1">
          <mxGeometry relative="1" as="geometry">
            <mxPoint x="320" y="900" as="sourcePoint" />
            <mxPoint x="480" y="900" as="targetPoint" />
            <Array as="points">
              <mxPoint x="530" y="575" />
              <mxPoint x="530" y="645" />
            </Array>
          </mxGeometry>
        </mxCell>
        <mxCell id="46ZdBslRODWZEYfCIZZH-122" value="0..n" style="edgeLabel;resizable=0;html=1;align=left;verticalAlign=bottom;" parent="46ZdBslRODWZEYfCIZZH-121" connectable="0" vertex="1">
          <mxGeometry x="-1" relative="1" as="geometry" />
        </mxCell>
        <mxCell id="46ZdBslRODWZEYfCIZZH-123" value="1" style="edgeLabel;resizable=0;html=1;align=right;verticalAlign=bottom;" parent="46ZdBslRODWZEYfCIZZH-121" connectable="0" vertex="1">
          <mxGeometry x="1" relative="1" as="geometry">
            <mxPoint x="-14" as="offset" />
          </mxGeometry>
        </mxCell>
        <mxCell id="46ZdBslRODWZEYfCIZZH-124" value="ServiceType" style="swimlane;html=1;fontStyle=1;align=center;verticalAlign=top;childLayout=stackLayout;horizontal=1;startSize=26;horizontalStack=0;resizeParent=1;resizeLast=0;collapsible=1;marginBottom=0;swimlaneFillColor=#ffffff;rounded=0;shadow=0;comic=0;labelBackgroundColor=none;strokeWidth=1;fillColor=none;fontFamily=Verdana;fontSize=12" parent="1" vertex="1">
          <mxGeometry x="-180" y="660" width="160" height="198" as="geometry" />
        </mxCell>
        <mxCell id="46ZdBslRODWZEYfCIZZH-125" value="+ serviceTypeId: number" style="text;html=1;strokeColor=none;fillColor=none;align=left;verticalAlign=top;spacingLeft=4;spacingRight=4;whiteSpace=wrap;overflow=hidden;rotatable=0;points=[[0,0.5],[1,0.5]];portConstraint=eastwest;" parent="46ZdBslRODWZEYfCIZZH-124" vertex="1">
          <mxGeometry y="26" width="160" height="26" as="geometry" />
        </mxCell>
        <mxCell id="46ZdBslRODWZEYfCIZZH-126" value="+ name: string" style="text;html=1;strokeColor=none;fillColor=none;align=left;verticalAlign=top;spacingLeft=4;spacingRight=4;whiteSpace=wrap;overflow=hidden;rotatable=0;points=[[0,0.5],[1,0.5]];portConstraint=eastwest;" parent="46ZdBslRODWZEYfCIZZH-124" vertex="1">
          <mxGeometry y="52" width="160" height="26" as="geometry" />
        </mxCell>
        <mxCell id="46ZdBslRODWZEYfCIZZH-127" value="+ time: number" style="text;html=1;strokeColor=none;fillColor=none;align=left;verticalAlign=top;spacingLeft=4;spacingRight=4;whiteSpace=wrap;overflow=hidden;rotatable=0;points=[[0,0.5],[1,0.5]];portConstraint=eastwest;" parent="46ZdBslRODWZEYfCIZZH-124" vertex="1">
          <mxGeometry y="78" width="160" height="26" as="geometry" />
        </mxCell>
        <mxCell id="46ZdBslRODWZEYfCIZZH-128" value="+ description: string" style="text;html=1;strokeColor=none;fillColor=none;align=left;verticalAlign=top;spacingLeft=4;spacingRight=4;whiteSpace=wrap;overflow=hidden;rotatable=0;points=[[0,0.5],[1,0.5]];portConstraint=eastwest;" parent="46ZdBslRODWZEYfCIZZH-124" vertex="1">
          <mxGeometry y="104" width="160" height="26" as="geometry" />
        </mxCell>
        <mxCell id="46ZdBslRODWZEYfCIZZH-129" value="" style="line;html=1;strokeWidth=1;fillColor=none;align=left;verticalAlign=middle;spacingTop=-1;spacingLeft=3;spacingRight=3;rotatable=0;labelPosition=right;points=[];portConstraint=eastwest;" parent="46ZdBslRODWZEYfCIZZH-124" vertex="1">
          <mxGeometry y="130" width="160" height="8" as="geometry" />
        </mxCell>
        <mxCell id="46ZdBslRODWZEYfCIZZH-130" value="+ getServiceCost(pricePerHr: number): number" style="text;html=1;strokeColor=none;fillColor=none;align=left;verticalAlign=top;spacingLeft=4;spacingRight=4;whiteSpace=wrap;overflow=hidden;rotatable=0;points=[[0,0.5],[1,0.5]];portConstraint=eastwest;" parent="46ZdBslRODWZEYfCIZZH-124" vertex="1">
          <mxGeometry y="138" width="160" height="60" as="geometry" />
        </mxCell>
        <mxCell id="46ZdBslRODWZEYfCIZZH-131" value="" style="endArrow=none;html=1;edgeStyle=orthogonalEdgeStyle;rounded=1;startSize=8;endSize=16;strokeColor=default;entryX=0.5;entryY=0;entryDx=0;entryDy=0;exitX=0;exitY=0.5;exitDx=0;exitDy=0;" parent="1" source="78961159f06e98e8-59" target="46ZdBslRODWZEYfCIZZH-124" edge="1">
          <mxGeometry relative="1" as="geometry">
            <mxPoint x="610" y="580" as="sourcePoint" />
            <mxPoint x="480" y="990" as="targetPoint" />
            <Array as="points">
              <mxPoint x="660" y="541" />
              <mxPoint x="660" y="460" />
              <mxPoint x="90" y="460" />
              <mxPoint x="90" y="640" />
              <mxPoint x="-100" y="640" />
            </Array>
          </mxGeometry>
        </mxCell>
        <mxCell id="46ZdBslRODWZEYfCIZZH-132" value="1" style="edgeLabel;resizable=0;html=1;align=left;verticalAlign=bottom;" parent="46ZdBslRODWZEYfCIZZH-131" connectable="0" vertex="1">
          <mxGeometry x="-1" relative="1" as="geometry">
            <mxPoint x="-20" y="-3" as="offset" />
          </mxGeometry>
        </mxCell>
        <mxCell id="46ZdBslRODWZEYfCIZZH-133" value="0..n" style="edgeLabel;resizable=0;html=1;align=right;verticalAlign=bottom;" parent="46ZdBslRODWZEYfCIZZH-131" connectable="0" vertex="1">
          <mxGeometry x="1" relative="1" as="geometry" />
        </mxCell>
        <mxCell id="46ZdBslRODWZEYfCIZZH-134" value="" style="endArrow=none;html=1;edgeStyle=orthogonalEdgeStyle;rounded=1;startSize=8;endSize=16;strokeColor=default;exitX=0.504;exitY=0.985;exitDx=0;exitDy=0;entryX=0.5;entryY=0;entryDx=0;entryDy=0;exitPerimeter=0;" parent="1" source="46ZdBslRODWZEYfCIZZH-130" target="78961159f06e98e8-95" edge="1">
          <mxGeometry relative="1" as="geometry">
            <mxPoint x="320" y="990" as="sourcePoint" />
            <mxPoint x="480" y="990" as="targetPoint" />
            <Array as="points">
              <mxPoint x="-99" y="890" />
              <mxPoint x="-160" y="890" />
            </Array>
          </mxGeometry>
        </mxCell>
        <mxCell id="46ZdBslRODWZEYfCIZZH-135" value="1" style="edgeLabel;resizable=0;html=1;align=left;verticalAlign=bottom;" parent="46ZdBslRODWZEYfCIZZH-134" connectable="0" vertex="1">
          <mxGeometry x="-1" relative="1" as="geometry">
            <mxPoint x="10" y="20" as="offset" />
          </mxGeometry>
        </mxCell>
        <mxCell id="46ZdBslRODWZEYfCIZZH-136" value="0..n" style="edgeLabel;resizable=0;html=1;align=right;verticalAlign=bottom;" parent="46ZdBslRODWZEYfCIZZH-134" connectable="0" vertex="1">
          <mxGeometry x="1" relative="1" as="geometry">
            <mxPoint x="-10" y="-1" as="offset" />
          </mxGeometry>
        </mxCell>
        <mxCell id="46ZdBslRODWZEYfCIZZH-137" value="Part" style="swimlane;html=1;fontStyle=1;align=center;verticalAlign=top;childLayout=stackLayout;horizontal=1;startSize=26;horizontalStack=0;resizeParent=1;resizeLast=0;collapsible=1;marginBottom=0;swimlaneFillColor=#ffffff;rounded=0;shadow=0;comic=0;labelBackgroundColor=none;strokeWidth=1;fillColor=none;fontFamily=Verdana;fontSize=12" parent="1" vertex="1">
          <mxGeometry x="110" y="509" width="160" height="201" as="geometry" />
        </mxCell>
        <mxCell id="46ZdBslRODWZEYfCIZZH-138" value="+ name: string" style="text;html=1;strokeColor=none;fillColor=none;align=left;verticalAlign=top;spacingLeft=4;spacingRight=4;whiteSpace=wrap;overflow=hidden;rotatable=0;points=[[0,0.5],[1,0.5]];portConstraint=eastwest;" parent="46ZdBslRODWZEYfCIZZH-137" vertex="1">
          <mxGeometry y="26" width="160" height="18" as="geometry" />
        </mxCell>
        <mxCell id="46ZdBslRODWZEYfCIZZH-139" value="+ id: int" style="text;html=1;strokeColor=none;fillColor=none;align=left;verticalAlign=top;spacingLeft=4;spacingRight=4;whiteSpace=wrap;overflow=hidden;rotatable=0;points=[[0,0.5],[1,0.5]];portConstraint=eastwest;" parent="46ZdBslRODWZEYfCIZZH-137" vertex="1">
          <mxGeometry y="44" width="160" height="26" as="geometry" />
        </mxCell>
        <mxCell id="46ZdBslRODWZEYfCIZZH-140" value="+ price: number" style="text;html=1;strokeColor=none;fillColor=none;align=left;verticalAlign=top;spacingLeft=4;spacingRight=4;whiteSpace=wrap;overflow=hidden;rotatable=0;points=[[0,0.5],[1,0.5]];portConstraint=eastwest;" parent="46ZdBslRODWZEYfCIZZH-137" vertex="1">
          <mxGeometry y="70" width="160" height="26" as="geometry" />
        </mxCell>
        <mxCell id="46ZdBslRODWZEYfCIZZH-141" value="+ compatibleVehicles: VehicleType[]" style="text;html=1;strokeColor=none;fillColor=none;align=left;verticalAlign=top;spacingLeft=4;spacingRight=4;whiteSpace=wrap;overflow=hidden;rotatable=0;points=[[0,0.5],[1,0.5]];portConstraint=eastwest;" parent="46ZdBslRODWZEYfCIZZH-137" vertex="1">
          <mxGeometry y="96" width="160" height="44" as="geometry" />
        </mxCell>
        <mxCell id="46ZdBslRODWZEYfCIZZH-142" value="" style="line;html=1;strokeWidth=1;fillColor=none;align=left;verticalAlign=middle;spacingTop=-1;spacingLeft=3;spacingRight=3;rotatable=0;labelPosition=right;points=[];portConstraint=eastwest;" parent="46ZdBslRODWZEYfCIZZH-137" vertex="1">
          <mxGeometry y="140" width="160" height="8" as="geometry" />
        </mxCell>
        <mxCell id="46ZdBslRODWZEYfCIZZH-143" value="+ getRetailPrice(markupPct: number) : number" style="text;html=1;strokeColor=none;fillColor=none;align=left;verticalAlign=top;spacingLeft=4;spacingRight=4;whiteSpace=wrap;overflow=hidden;rotatable=0;points=[[0,0.5],[1,0.5]];portConstraint=eastwest;" parent="46ZdBslRODWZEYfCIZZH-137" vertex="1">
          <mxGeometry y="148" width="160" height="40" as="geometry" />
        </mxCell>
        <mxCell id="46ZdBslRODWZEYfCIZZH-144" value="" style="endArrow=none;html=1;edgeStyle=orthogonalEdgeStyle;rounded=1;startSize=8;endSize=16;strokeColor=default;exitX=0;exitY=0.5;exitDx=0;exitDy=0;entryX=0.5;entryY=0;entryDx=0;entryDy=0;" parent="1" source="78961159f06e98e8-61" target="46ZdBslRODWZEYfCIZZH-137" edge="1">
          <mxGeometry relative="1" as="geometry">
            <mxPoint x="860" y="930" as="sourcePoint" />
            <mxPoint x="1020" y="930" as="targetPoint" />
            <Array as="points">
              <mxPoint x="710" y="590" />
              <mxPoint x="610" y="590" />
              <mxPoint x="610" y="490" />
              <mxPoint x="190" y="490" />
            </Array>
          </mxGeometry>
        </mxCell>
        <mxCell id="46ZdBslRODWZEYfCIZZH-145" value="1" style="edgeLabel;resizable=0;html=1;align=left;verticalAlign=bottom;" parent="46ZdBslRODWZEYfCIZZH-144" connectable="0" vertex="1">
          <mxGeometry x="-1" relative="1" as="geometry">
            <mxPoint x="-20" as="offset" />
          </mxGeometry>
        </mxCell>
        <mxCell id="46ZdBslRODWZEYfCIZZH-146" value="0..n" style="edgeLabel;resizable=0;html=1;align=right;verticalAlign=bottom;" parent="46ZdBslRODWZEYfCIZZH-144" connectable="0" vertex="1">
          <mxGeometry x="1" relative="1" as="geometry" />
        </mxCell>
        <mxCell id="o2A0M3EPrdUJBVCQYMRQ-2" value="" style="endArrow=none;html=1;edgeStyle=orthogonalEdgeStyle;rounded=1;exitX=0.25;exitY=1;exitDx=0;exitDy=0;entryX=0.75;entryY=0;entryDx=0;entryDy=0;" parent="1" source="46ZdBslRODWZEYfCIZZH-137" target="78961159f06e98e8-95" edge="1">
          <mxGeometry relative="1" as="geometry">
            <mxPoint x="70" y="780" as="sourcePoint" />
            <mxPoint x="-70" y="950" as="targetPoint" />
            <Array as="points">
              <mxPoint x="150" y="730" />
              <mxPoint x="10" y="730" />
              <mxPoint x="10" y="950" />
              <mxPoint x="-120" y="950" />
            </Array>
          </mxGeometry>
        </mxCell>
        <mxCell id="o2A0M3EPrdUJBVCQYMRQ-3" value="1..n" style="edgeLabel;resizable=0;html=1;align=left;verticalAlign=bottom;" parent="o2A0M3EPrdUJBVCQYMRQ-2" connectable="0" vertex="1">
          <mxGeometry x="-1" relative="1" as="geometry">
            <mxPoint y="20" as="offset" />
          </mxGeometry>
        </mxCell>
        <mxCell id="o2A0M3EPrdUJBVCQYMRQ-4" value="0..n" style="edgeLabel;resizable=0;html=1;align=right;verticalAlign=bottom;" parent="o2A0M3EPrdUJBVCQYMRQ-2" connectable="0" vertex="1">
          <mxGeometry x="1" relative="1" as="geometry" />
        </mxCell>
        <mxCell id="bMPujhu8VFd3zGCD5QTW-3" value="" style="endArrow=none;html=1;edgeStyle=orthogonalEdgeStyle;rounded=1;exitX=1;exitY=0.5;exitDx=0;exitDy=0;entryX=0;entryY=0.5;entryDx=0;entryDy=0;" parent="1" source="46ZdBslRODWZEYfCIZZH-141" target="46ZdBslRODWZEYfCIZZH-113" edge="1">
          <mxGeometry relative="1" as="geometry">
            <mxPoint x="230" y="820" as="sourcePoint" />
            <mxPoint x="390" y="820" as="targetPoint" />
          </mxGeometry>
        </mxCell>
        <mxCell id="bMPujhu8VFd3zGCD5QTW-4" value="0..n" style="edgeLabel;resizable=0;html=1;align=left;verticalAlign=bottom;" parent="bMPujhu8VFd3zGCD5QTW-3" connectable="0" vertex="1">
          <mxGeometry x="-1" relative="1" as="geometry">
            <mxPoint x="10" y="22" as="offset" />
          </mxGeometry>
        </mxCell>
        <mxCell id="bMPujhu8VFd3zGCD5QTW-5" value="1..n" style="edgeLabel;resizable=0;html=1;align=right;verticalAlign=bottom;" parent="bMPujhu8VFd3zGCD5QTW-3" connectable="0" vertex="1">
          <mxGeometry x="1" relative="1" as="geometry" />
        </mxCell>
        <mxCell id="ke-xXv9OqPbWqF709rVO-1" value="ShopBillingInformation" style="swimlane;html=1;fontStyle=1;align=center;verticalAlign=top;childLayout=stackLayout;horizontal=1;startSize=26;horizontalStack=0;resizeParent=1;resizeLast=0;collapsible=1;marginBottom=0;swimlaneFillColor=#ffffff;rounded=0;shadow=0;comic=0;labelBackgroundColor=none;strokeWidth=1;fillColor=none;fontFamily=Verdana;fontSize=12" parent="1" vertex="1">
          <mxGeometry x="360" y="20" width="160" height="240" as="geometry" />
        </mxCell>
        <mxCell id="ke-xXv9OqPbWqF709rVO-2" value="+ name: string" style="text;html=1;strokeColor=none;fillColor=none;align=left;verticalAlign=top;spacingLeft=4;spacingRight=4;whiteSpace=wrap;overflow=hidden;rotatable=0;points=[[0,0.5],[1,0.5]];portConstraint=eastwest;" parent="ke-xXv9OqPbWqF709rVO-1" vertex="1">
          <mxGeometry y="26" width="160" height="26" as="geometry" />
        </mxCell>
        <mxCell id="ke-xXv9OqPbWqF709rVO-3" value="+ address1: string" style="text;html=1;strokeColor=none;fillColor=none;align=left;verticalAlign=top;spacingLeft=4;spacingRight=4;whiteSpace=wrap;overflow=hidden;rotatable=0;points=[[0,0.5],[1,0.5]];portConstraint=eastwest;" parent="ke-xXv9OqPbWqF709rVO-1" vertex="1">
          <mxGeometry y="52" width="160" height="26" as="geometry" />
        </mxCell>
        <mxCell id="ke-xXv9OqPbWqF709rVO-4" value="+ address2: string" style="text;html=1;strokeColor=none;fillColor=none;align=left;verticalAlign=top;spacingLeft=4;spacingRight=4;whiteSpace=wrap;overflow=hidden;rotatable=0;points=[[0,0.5],[1,0.5]];portConstraint=eastwest;" parent="ke-xXv9OqPbWqF709rVO-1" vertex="1">
          <mxGeometry y="78" width="160" height="26" as="geometry" />
        </mxCell>
        <mxCell id="ke-xXv9OqPbWqF709rVO-5" value="+ zip: string" style="text;html=1;strokeColor=none;fillColor=none;align=left;verticalAlign=top;spacingLeft=4;spacingRight=4;whiteSpace=wrap;overflow=hidden;rotatable=0;points=[[0,0.5],[1,0.5]];portConstraint=eastwest;" parent="ke-xXv9OqPbWqF709rVO-1" vertex="1">
          <mxGeometry y="104" width="160" height="26" as="geometry" />
        </mxCell>
        <mxCell id="ke-xXv9OqPbWqF709rVO-6" value="+ city: string" style="text;html=1;strokeColor=none;fillColor=none;align=left;verticalAlign=top;spacingLeft=4;spacingRight=4;whiteSpace=wrap;overflow=hidden;rotatable=0;points=[[0,0.5],[1,0.5]];portConstraint=eastwest;" parent="ke-xXv9OqPbWqF709rVO-1" vertex="1">
          <mxGeometry y="130" width="160" height="26" as="geometry" />
        </mxCell>
        <mxCell id="ke-xXv9OqPbWqF709rVO-7" value="+ state: string" style="text;html=1;strokeColor=none;fillColor=none;align=left;verticalAlign=top;spacingLeft=4;spacingRight=4;whiteSpace=wrap;overflow=hidden;rotatable=0;points=[[0,0.5],[1,0.5]];portConstraint=eastwest;" parent="ke-xXv9OqPbWqF709rVO-1" vertex="1">
          <mxGeometry y="156" width="160" height="26" as="geometry" />
        </mxCell>
        <mxCell id="ke-xXv9OqPbWqF709rVO-8" value="+ country: string" style="text;html=1;strokeColor=none;fillColor=none;align=left;verticalAlign=top;spacingLeft=4;spacingRight=4;whiteSpace=wrap;overflow=hidden;rotatable=0;points=[[0,0.5],[1,0.5]];portConstraint=eastwest;" parent="ke-xXv9OqPbWqF709rVO-1" vertex="1">
          <mxGeometry y="182" width="160" height="26" as="geometry" />
        </mxCell>
        <mxCell id="ke-xXv9OqPbWqF709rVO-9" value="+ contactName: string" style="text;html=1;strokeColor=none;fillColor=none;align=left;verticalAlign=top;spacingLeft=4;spacingRight=4;whiteSpace=wrap;overflow=hidden;rotatable=0;points=[[0,0.5],[1,0.5]];portConstraint=eastwest;" parent="ke-xXv9OqPbWqF709rVO-1" vertex="1">
          <mxGeometry y="208" width="160" height="26" as="geometry" />
        </mxCell>
        <mxCell id="ke-xXv9OqPbWqF709rVO-33" value="1" style="edgeLabel;resizable=0;html=1;align=left;verticalAlign=bottom;" parent="1" connectable="0" vertex="1">
          <mxGeometry x="450" y="259.9999999999998" as="geometry">
            <mxPoint x="-8" y="16" as="offset" />
          </mxGeometry>
        </mxCell>
        <object label="ThirdPartySupplier" id="ke-xXv9OqPbWqF709rVO-34">
          <mxCell style="swimlane;html=1;fontStyle=1;align=center;verticalAlign=top;childLayout=stackLayout;horizontal=1;startSize=26;horizontalStack=0;resizeParent=1;resizeLast=0;collapsible=1;marginBottom=0;swimlaneFillColor=#ffffff;rounded=0;shadow=0;comic=0;labelBackgroundColor=none;strokeWidth=1;fillColor=none;fontFamily=Verdana;fontSize=12" parent="1" vertex="1">
            <mxGeometry x="-90" y="290" width="160" height="270" as="geometry">
              <mxRectangle x="-90" y="320" width="170" height="30" as="alternateBounds" />
            </mxGeometry>
          </mxCell>
        </object>
        <mxCell id="ke-xXv9OqPbWqF709rVO-35" value="+ SupplierId: number" style="text;html=1;strokeColor=none;fillColor=none;align=left;verticalAlign=top;spacingLeft=4;spacingRight=4;whiteSpace=wrap;overflow=hidden;rotatable=0;points=[[0,0.5],[1,0.5]];portConstraint=eastwest;" parent="ke-xXv9OqPbWqF709rVO-34" vertex="1">
          <mxGeometry y="26" width="160" height="26" as="geometry" />
        </mxCell>
        <mxCell id="ke-xXv9OqPbWqF709rVO-36" value="+ Name: string" style="text;html=1;strokeColor=none;fillColor=none;align=left;verticalAlign=top;spacingLeft=4;spacingRight=4;whiteSpace=wrap;overflow=hidden;rotatable=0;points=[[0,0.5],[1,0.5]];portConstraint=eastwest;" parent="ke-xXv9OqPbWqF709rVO-34" vertex="1">
          <mxGeometry y="52" width="160" height="26" as="geometry" />
        </mxCell>
        <mxCell id="ke-xXv9OqPbWqF709rVO-37" value="+ address: string" style="text;html=1;strokeColor=none;fillColor=none;align=left;verticalAlign=top;spacingLeft=4;spacingRight=4;whiteSpace=wrap;overflow=hidden;rotatable=0;points=[[0,0.5],[1,0.5]];portConstraint=eastwest;" parent="ke-xXv9OqPbWqF709rVO-34" vertex="1">
          <mxGeometry y="78" width="160" height="26" as="geometry" />
        </mxCell>
        <mxCell id="ke-xXv9OqPbWqF709rVO-38" value="+ zip: string" style="text;html=1;strokeColor=none;fillColor=none;align=left;verticalAlign=top;spacingLeft=4;spacingRight=4;whiteSpace=wrap;overflow=hidden;rotatable=0;points=[[0,0.5],[1,0.5]];portConstraint=eastwest;" parent="ke-xXv9OqPbWqF709rVO-34" vertex="1">
          <mxGeometry y="104" width="160" height="26" as="geometry" />
        </mxCell>
        <mxCell id="ke-xXv9OqPbWqF709rVO-39" value="+ city: string" style="text;html=1;strokeColor=none;fillColor=none;align=left;verticalAlign=top;spacingLeft=4;spacingRight=4;whiteSpace=wrap;overflow=hidden;rotatable=0;points=[[0,0.5],[1,0.5]];portConstraint=eastwest;" parent="ke-xXv9OqPbWqF709rVO-34" vertex="1">
          <mxGeometry y="130" width="160" height="26" as="geometry" />
        </mxCell>
        <mxCell id="ke-xXv9OqPbWqF709rVO-40" value="+ state: string" style="text;html=1;strokeColor=none;fillColor=none;align=left;verticalAlign=top;spacingLeft=4;spacingRight=4;whiteSpace=wrap;overflow=hidden;rotatable=0;points=[[0,0.5],[1,0.5]];portConstraint=eastwest;" parent="ke-xXv9OqPbWqF709rVO-34" vertex="1">
          <mxGeometry y="156" width="160" height="26" as="geometry" />
        </mxCell>
        <mxCell id="ke-xXv9OqPbWqF709rVO-41" value="+ country: string" style="text;html=1;strokeColor=none;fillColor=none;align=left;verticalAlign=top;spacingLeft=4;spacingRight=4;whiteSpace=wrap;overflow=hidden;rotatable=0;points=[[0,0.5],[1,0.5]];portConstraint=eastwest;" parent="ke-xXv9OqPbWqF709rVO-34" vertex="1">
          <mxGeometry y="182" width="160" height="26" as="geometry" />
        </mxCell>
        <mxCell id="ke-xXv9OqPbWqF709rVO-42" value="+ email: string" style="text;html=1;strokeColor=none;fillColor=none;align=left;verticalAlign=top;spacingLeft=4;spacingRight=4;whiteSpace=wrap;overflow=hidden;rotatable=0;points=[[0,0.5],[1,0.5]];portConstraint=eastwest;" parent="ke-xXv9OqPbWqF709rVO-34" vertex="1">
          <mxGeometry y="208" width="160" height="26" as="geometry" />
        </mxCell>
        <mxCell id="ke-xXv9OqPbWqF709rVO-43" value="+ phone: string" style="text;html=1;strokeColor=none;fillColor=none;align=left;verticalAlign=top;spacingLeft=4;spacingRight=4;whiteSpace=wrap;overflow=hidden;rotatable=0;points=[[0,0.5],[1,0.5]];portConstraint=eastwest;" parent="ke-xXv9OqPbWqF709rVO-34" vertex="1">
          <mxGeometry y="234" width="160" height="26" as="geometry" />
        </mxCell>
        <mxCell id="ke-xXv9OqPbWqF709rVO-48" value="SupplierOffer" style="swimlane;html=1;fontStyle=1;align=center;verticalAlign=top;childLayout=stackLayout;horizontal=1;startSize=26;horizontalStack=0;resizeParent=1;resizeLast=0;collapsible=1;marginBottom=0;swimlaneFillColor=#ffffff;rounded=0;shadow=0;comic=0;labelBackgroundColor=none;strokeWidth=1;fillColor=none;fontFamily=Verdana;fontSize=12" parent="1" vertex="1">
          <mxGeometry x="-370" y="389" width="200" height="161" as="geometry" />
        </mxCell>
        <mxCell id="ke-xXv9OqPbWqF709rVO-49" value="+ OfferId: enum" style="text;html=1;strokeColor=none;fillColor=none;align=left;verticalAlign=top;spacingLeft=4;spacingRight=4;whiteSpace=wrap;overflow=hidden;rotatable=0;points=[[0,0.5],[1,0.5]];portConstraint=eastwest;" parent="ke-xXv9OqPbWqF709rVO-48" vertex="1">
          <mxGeometry y="26" width="200" height="26" as="geometry" />
        </mxCell>
        <mxCell id="ke-xXv9OqPbWqF709rVO-50" value="+ price: number" style="text;html=1;strokeColor=none;fillColor=none;align=left;verticalAlign=top;spacingLeft=4;spacingRight=4;whiteSpace=wrap;overflow=hidden;rotatable=0;points=[[0,0.5],[1,0.5]];portConstraint=eastwest;" parent="ke-xXv9OqPbWqF709rVO-48" vertex="1">
          <mxGeometry y="52" width="200" height="26" as="geometry" />
        </mxCell>
        <mxCell id="ke-xXv9OqPbWqF709rVO-51" value="+ warrantyPeriod: number" style="text;html=1;strokeColor=none;fillColor=none;align=left;verticalAlign=top;spacingLeft=4;spacingRight=4;whiteSpace=wrap;overflow=hidden;rotatable=0;points=[[0,0.5],[1,0.5]];portConstraint=eastwest;" parent="ke-xXv9OqPbWqF709rVO-48" vertex="1">
          <mxGeometry y="78" width="200" height="26" as="geometry" />
        </mxCell>
        <mxCell id="ke-xXv9OqPbWqF709rVO-52" value="+ manufacturer: string" style="text;html=1;strokeColor=none;fillColor=none;align=left;verticalAlign=top;spacingLeft=4;spacingRight=4;whiteSpace=wrap;overflow=hidden;rotatable=0;points=[[0,0.5],[1,0.5]];portConstraint=eastwest;" parent="ke-xXv9OqPbWqF709rVO-48" vertex="1">
          <mxGeometry y="104" width="200" height="26" as="geometry" />
        </mxCell>
        <mxCell id="ke-xXv9OqPbWqF709rVO-53" value="+ description: string" style="text;html=1;strokeColor=none;fillColor=none;align=left;verticalAlign=top;spacingLeft=4;spacingRight=4;whiteSpace=wrap;overflow=hidden;rotatable=0;points=[[0,0.5],[1,0.5]];portConstraint=eastwest;" parent="ke-xXv9OqPbWqF709rVO-48" vertex="1">
          <mxGeometry y="130" width="200" height="26" as="geometry" />
        </mxCell>
      </root>
    </mxGraphModel>
  </diagram>
</mxfile>
